<svg xmlns="http://www.w3.org/2000/svg" xmlns:xlink="http://www.w3.org/1999/xlink" width="1920" zoomAndPan="magnify" viewBox="0 0 1440 809.999993" height="1080" preserveAspectRatio="xMidYMid meet" version="1.0"><defs><clipPath id="88475c5857"><path d="M 321 11 L 1036 11 L 1036 797 L 321 797 Z M 321 11 " clip-rule="nonzero"/></clipPath><clipPath id="af7374784a"><path d="M 176.160156 639.527344 L 498.882812 -109.945312 L 1158.113281 173.921875 L 835.390625 923.390625 Z M 176.160156 639.527344 " clip-rule="nonzero"/></clipPath><clipPath id="102d2b1a8f"><path d="M 176.160156 639.527344 L 498.882812 -109.945312 L 1158.113281 173.921875 L 835.390625 923.390625 Z M 176.160156 639.527344 " clip-rule="nonzero"/></clipPath></defs><g clip-path="url(#88475c5857)"><g clip-path="url(#af7374784a)"><g clip-path="url(#102d2b1a8f)"><path fill="#ff1616" d="M 330.21875 585.175781 C 336.539062 604.464844 346.863281 623.433594 362.019531 641.808594 C 459.839844 760.378906 699.863281 865.015625 830.378906 740.632812 C 885.851562 687.769531 931.25 614.003906 973.5625 550.441406 C 1036.976562 455.179688 1057.6875 363.527344 1007.863281 255.335938 C 968.335938 169.511719 908.292969 72.550781 819.871094 30.433594 C 771.886719 7.570312 712.554688 3.847656 666.648438 30.65625 C 628.835938 52.742188 604.753906 91.675781 579.113281 127.171875 C 491.625 248.300781 273.796875 412.894531 330.21875 585.175781 " fill-opacity="1" fill-rule="nonzero"/></g></g></g></svg>